{"title":"The.Point.of.Regret.[2011].DvdRip.XviD-KnÃƒÂ£","uid":6502349,"size":939501568,"categoryP":"video","categoryS":"movies","magnet":"?xt=urn:btih:29ea114dc6694ac88ad1d3829031bb5c7e6c6d2a&amp;dn=The.Point.of.Regret.%5B2011%5D.DvdRip.XviD-Kn%C3%83%C2%A3&amp;tr=udp%3A%2F%2Ftracker.openbittorrent.com%3A80&amp;tr=udp%3A%2F%2Fopen.demonii.com%3A1337&amp;tr=udp%3A%2F%2Ftracker.coppersurfer.tk%3A6969&amp;tr=udp%3A%2F%2Fexodus.desync.com%3A6969","seeders":0,"leechers":1,"uploader":"Jon.Pson","files":1,"time":1309292301,"description":"Yorkshire, 1978. A mother, father and their three year old son are brutally stabbed to death while they sleep. There is no motive. They were a model family. The nation is outraged by the senseless killings. Incredibly, the British public are overwhelmingly in favour of bringing back the death penalty to see justice carried out. Even more incredibly the killer, who is caught red-handed trying to drag the father's body out of the house, manages to hide the three year old's body in a place where the investigators, the police and even their dog teams would never find it. For months all the nation can talk about is the &quot;Kid Killer&quot; but, and this is the most incredible fact of all, not because he cold-bloodedly stabbed to death a three year old, his mother and his father, but because these innocent victims were also his family. The &quot;Kid Killer&quot; was their twelve year old son William. Malvern, thirty years later... \n\n\n\n\n\nGeneral\nComplete name                    : H:\\Movies\\The.Point.of.Regret.[2011].DvdRip.XviD-KnÃƒÂ£\\The.Point.of.Regret.[2011].DvdRip.XviD-KnÃƒÂ£.avi\nFormat                           : AVI\nFormat/Info                      : Audio Video Interleave\nFile size                        : 896 MiB\nDuration                         : 1h 34mn\nOverall bit rate                 : 1 330 Kbps\nWriting application              : VirtualDubMod 1.5.4.1 (build 2178/release)\nWriting library                  : VirtualDubMod build 2178/release\n\nVideo\nID                               : 0\nFormat                           : MPEG-4 Visual\nFormat profile                   : Advanced Simple@L5\nFormat settings, BVOP            : Yes\nFormat settings, QPel            : No\nFormat settings, GMC             : No warppoints\nFormat settings, Matrix          : Default (H.263)\nMuxing mode                      : Packed bitstream\nCodec ID                         : XVID\nCodec ID/Hint                    : XviD\nDuration                         : 1h 34mn\nBit rate                         : 1 131 Kbps\nWidth                            : 624 pixels\nHeight                           : 352 pixels\nDisplay aspect ratio             : 16:9\nFrame rate                       : 25.000 fps\nColor space                      : YUV\nChroma subsampling               : 4:2:0\nBit depth                        : 8 bits\nScan type                        : Progressive\nBits/(Pixel*Frame)               : 0.206\nStream size                      : 762 MiB (85%)\nWriting library                  : XviD 1.2.1 (UTC 2008-12-04)\n\nAudio\nID                               : 1\nFormat                           : AC-3\nFormat/Info                      : Audio Coding 3\nMode extension                   : CM (complete main)\nCodec ID                         : 2000\nDuration                         : 1h 34mn\nBit rate mode                    : Constant\nBit rate                         : 192 Kbps\nChannel(s)                       : 2 channels\nChannel positions                : Front: L R\nSampling rate                    : 48.0 KHz\nBit depth                        : 16 bits\nStream size                      : 129 MiB (14%)\nAlignment                        : Split accross interleaves\nInterleave, duration             : 80 ms (2.00 video frames)\nInterleave, preload duration     : 500 ms\n\n","torrent":{"xt":"urn:btih:29ea114dc6694ac88ad1d3829031bb5c7e6c6d2a","amp;dn":"The.Point.of.Regret.%5B2011%5D.DvdRip.XviD-Kn%C3%83%C2%A3","amp;tr":["udp%3A%2F%2Ftracker.openbittorrent.com%3A80","udp%3A%2F%2Fopen.demonii.com%3A1337","udp%3A%2F%2Ftracker.coppersurfer.tk%3A6969","udp%3A%2F%2Fexodus.desync.com%3A6969"],"infoHash":"29ea114dc6694ac88ad1d3829031bb5c7e6c6d2a","infoHashBuffer":{"type":"Buffer","data":[41,234,17,77,198,105,74,200,138,209,211,130,144,49,187,92,126,108,109,42]},"announce":[],"urlList":[]}}